<svg width="24" height="24" viewBox="0 0 24 24" fill="none" xmlns="http://www.w3.org/2000/svg">
<path fill-rule="evenodd" clip-rule="evenodd" d="M21.0355 9C21.0355 12.866 17.9015 16 14.0355 16C10.1696 16 7.03555 12.866 7.03555 9C7.03555 5.13401 10.1696 2 14.0355 2C17.9015 2 21.0355 5.13401 21.0355 9ZM23.0355 9C23.0355 13.9706 19.0061 18 14.0355 18C12.2745 18 10.6315 17.4942 9.24407 16.6199L2.37869 23.4853L0.964478 22.0711L7.67158 15.364C6.0429 13.7353 5.03555 11.4853 5.03555 9C5.03555 4.02944 9.06498 0 14.0355 0C19.0061 0 23.0355 4.02944 23.0355 9Z" fill="white"/>
</svg>
