<?xml version="1.0" standalone="no"?>
<!DOCTYPE svg PUBLIC "-//W3C//DTD SVG 20010904//EN"
 "http://www.w3.org/TR/2001/REC-SVG-20010904/DTD/svg10.dtd">
<svg version="1.0" xmlns="http://www.w3.org/2000/svg"
 width="300.000000pt" height="300.000000pt" viewBox="0 0 300.000000 300.000000"
 preserveAspectRatio="xMidYMid meet">
<metadata>
Created by potrace 1.14, written by Peter Selinger 2001-2017
</metadata>
<g transform="translate(0.000000,300.000000) scale(0.100000,-0.100000)"
fill="#000000" stroke="none">
<path d="M1350 2993 c-178 -25 -279 -50 -409 -102 -391 -157 -697 -471 -847
-869 -109 -287 -121 -644 -32 -947 49 -170 142 -351 255 -497 96 -125 279
-288 409 -364 94 -55 283 -139 338 -150 10 -2 33 -8 50 -13 125 -40 433 -60
585 -38 502 72 921 374 1145 825 101 203 147 394 151 632 5 277 -41 476 -167
721 -213 415 -613 707 -1083 789 -66 12 -340 21 -395 13z"/>
</g>
</svg>
